<svg viewBox="0 0 100 100" xmlns="http://www.w3.org/2000/svg" id="圖層_1" width="100" height="100" xmlns:xlink="http://www.w3.org/1999/xlink" style="width:100%;height:100%;background-size:initial;background-repeat-y:initial;background-repeat-x:initial;background-position-y:initial;background-position-x:initial;background-origin:initial;background-image:initial;background-color:#f1f2f3;background-clip:initial;background-attachment:initial;animation-play-state:paused"><g class="ldl-scale" style="transform-origin:50% 50%;transform:rotate(0)scale(.8,.8);animation-play-state:paused"><path stroke-miterlimit="10" stroke-width="3" stroke="#333" fill="#f8b26a" d="M76.185 90h-52.37a4.06 4.06.0 01-4.06-4.06V12.06A4.06 4.06.0 0123.815 8h52.369a4.06 4.06.0 014.06 4.06v73.88A4.059 4.059.0 0176.185 90z" style="stroke:#bda0b2;fill:#0055a5;animation-play-state:paused"/><path stroke-miterlimit="10" stroke-width="3" stroke="#333" fill="#333" d="M80.245 29.839h-60.49v-17.39a4.06 4.06.0 014.06-4.06h52.369a4.06 4.06.0 014.06 4.06v17.39z" style="stroke:#bda0b2;fill:#bda0b2;animation-play-state:paused"/><path d="M40.645 12.874h34.253v12.481H40.645z" fill="#abbd81" style="fill:#45aee7;animation-play-state:paused"/><path d="M28.1 38.071h11.234v11.234H28.1z" fill="#333" style="fill:#bda0b2;animation-play-state:paused"/><path d="M44.383 38.071h11.234v11.234H44.383z" fill="#333" style="fill:#bda0b2;animation-play-state:paused"/><path d="M60.666 38.071H71.9v11.234H60.666z" fill="#333" style="fill:#bda0b2;animation-play-state:paused"/><path d="M28.1 54.354h11.234v11.234H28.1z" fill="#333" style="fill:#bda0b2;animation-play-state:paused"/><path d="M44.383 54.354h11.234v11.234H44.383z" fill="#333" style="fill:#bda0b2;animation-play-state:paused"/><path d="M60.666 54.354H71.9v11.234H60.666z" fill="#333" style="fill:#bda0b2;animation-play-state:paused"/><path d="M28.1 70.637h11.234v11.234H28.1z" fill="#333" style="fill:#bda0b2;animation-play-state:paused"/><path d="M44.383 70.637h11.234v11.234H44.383z" fill="#333" style="fill:#bda0b2;animation-play-state:paused"/><path d="M60.666 70.637H71.9v11.234H60.666z" fill="#333" style="fill:#bda0b2;animation-play-state:paused"/></g></svg>